<?xml version="1.0" encoding="UTF-8" standalone="no"?>
<!-- Created with Inkscape (http://www.inkscape.org/) -->
<svg
   xmlns:dc="http://purl.org/dc/elements/1.1/"
   xmlns:cc="http://web.resource.org/cc/"
   xmlns:rdf="http://www.w3.org/1999/02/22-rdf-syntax-ns#"
   xmlns:svg="http://www.w3.org/2000/svg"
   xmlns="http://www.w3.org/2000/svg"
   xmlns:xlink="http://www.w3.org/1999/xlink"
   xmlns:sodipodi="http://sodipodi.sourceforge.net/DTD/sodipodi-0.dtd"
   xmlns:inkscape="http://www.inkscape.org/namespaces/inkscape"
   sodipodi:docname="Battery-12V.svg"
   sodipodi:docbase="/home/phsi/Desktop/pamphlet/Materials"
   inkscape:version="0.45.1"
   sodipodi:version="0.32"
   id="svg1328"
   height="60.007431"
   width="74.153267"
   inkscape:output_extension="org.inkscape.output.svg.inkscape"
   version="1.0">
  <sodipodi:namedview
     stroke="#a40000"
     inkscape:window-y="25"
     inkscape:window-x="0"
     inkscape:window-height="949"
     inkscape:window-width="1280"
     fill="#cc0000"
     inkscape:showpageshadow="false"
     inkscape:document-units="px"
     inkscape:grid-bbox="true"
     showgrid="false"
     inkscape:current-layer="layer1"
     inkscape:cy="56.120143"
     inkscape:cx="10.404019"
     inkscape:zoom="5.6568543"
     inkscape:pageshadow="2"
     inkscape:pageopacity="0.0"
     borderopacity="0.25490196"
     bordercolor="#666666"
     pagecolor="#ffffff"
     id="base" />
  <defs
     id="defs3">
    <linearGradient
       id="linearGradient6824">
      <stop
         id="stop6826"
         style="stop-color:#9a9a9a;stop-opacity:1;"
         offset="0" />
      <stop
         id="stop6828"
         style="stop-color:#b6b57e;stop-opacity:1;"
         offset="1" />
    </linearGradient>
    <linearGradient
       id="linearGradient4561">
      <stop
         offset="0"
         style="stop-color:#535353;stop-opacity:0.45918366;"
         id="stop4563" />
      <stop
         offset="1"
         style="stop-color:#757575;stop-opacity:0;"
         id="stop4565" />
    </linearGradient>
    <linearGradient
       id="linearGradient4361">
      <stop
         offset="0.0000000"
         style="stop-color:#7d4b01;stop-opacity:1.0000000;"
         id="stop4363" />
      <stop
         offset="1.0000000"
         style="stop-color:#535353;stop-opacity:1.0000000;"
         id="stop4365" />
    </linearGradient>
    <linearGradient
       id="linearGradient4351">
      <stop
         offset="0.0000000"
         style="stop-color:#7e807a;stop-opacity:1.0000000;"
         id="stop4353" />
      <stop
         offset="0.25000000"
         style="stop-color:#babbb8;stop-opacity:1.0000000;"
         id="stop4355" />
      <stop
         offset="0.50000000"
         style="stop-color:#a5a6a3;stop-opacity:1.0000000;"
         id="stop4357" />
      <stop
         offset="1.0000000"
         style="stop-color:#333432;stop-opacity:1.0000000;"
         id="stop4359" />
    </linearGradient>
    <linearGradient
       id="linearGradient6932">
      <stop
         offset="0.0000000"
         style="stop-color:#ffffff;stop-opacity:1.0000000;"
         id="stop6934" />
      <stop
         offset="1.0000000"
         style="stop-color:#e7e6ae;stop-opacity:1.0000000;"
         id="stop6936" />
    </linearGradient>
    <linearGradient
       id="linearGradient4206">
      <stop
         offset="0.0000000"
         style="stop-color:#7d4b01;stop-opacity:1.0000000;"
         id="stop4208" />
      <stop
         offset="1.0000000"
         style="stop-color:#535353;stop-opacity:1.0000000;"
         id="stop4210" />
    </linearGradient>
    <linearGradient
       id="linearGradient4176">
      <stop
         offset="0"
         style="stop-color:#ffffff;stop-opacity:0.83673471;"
         id="stop4178" />
      <stop
         offset="0.65517241"
         style="stop-color:#ffffff;stop-opacity:0.49803922;"
         id="stop4551" />
      <stop
         offset="1"
         style="stop-color:#ffffff;stop-opacity:0;"
         id="stop4180" />
    </linearGradient>
    <linearGradient
       id="linearGradient4162">
      <stop
         offset="0.0000000"
         style="stop-color:#f79403;stop-opacity:1.0000000;"
         id="stop4164" />
      <stop
         offset="0.18691589"
         style="stop-color:#fdb343;stop-opacity:1.0000000;"
         id="stop4170" />
      <stop
         offset="0.43008122"
         style="stop-color:#fdb74f;stop-opacity:1.0000000;"
         id="stop4172" />
      <stop
         offset="1.0000000"
         style="stop-color:#8f5601;stop-opacity:1.0000000;"
         id="stop4166" />
    </linearGradient>
    <linearGradient
       id="linearGradient4134">
      <stop
         offset="0.0000000"
         style="stop-color:#b6b7b4;stop-opacity:1"
         id="stop4136" />
      <stop
         offset="0.25000000"
         style="stop-color:#babbb8;stop-opacity:1.0000000;"
         id="stop4148" />
      <stop
         offset="0.50000000"
         style="stop-color:#a5a6a3;stop-opacity:1.0000000;"
         id="stop4142" />
      <stop
         offset="1.0000000"
         style="stop-color:#333432;stop-opacity:1.0000000;"
         id="stop4138" />
    </linearGradient>
    <linearGradient
       id="linearGradient4126"
       inkscape:collect="always">
      <stop
         offset="0"
         style="stop-color:#000000;stop-opacity:1;"
         id="stop4128" />
      <stop
         offset="1"
         style="stop-color:#000000;stop-opacity:0;"
         id="stop4130" />
    </linearGradient>
    <linearGradient
       x1="24"
       y1="16.525082"
       x2="24"
       inkscape:collect="always"
       gradientUnits="userSpaceOnUse"
       y2="13.284962"
       xlink:href="#linearGradient6824"
       id="linearGradient4455" />
    <linearGradient
       x1="24"
       y1="16.525082"
       x2="24"
       inkscape:collect="always"
       gradientUnits="userSpaceOnUse"
       y2="13.284962"
       xlink:href="#linearGradient6824"
       id="linearGradient4471" />
    <linearGradient
       x1="45.366383"
       y1="-38.309269"
       x2="44.755478"
       inkscape:collect="always"
       gradientUnits="userSpaceOnUse"
       y2="-34.167141"
       xlink:href="#linearGradient4361"
       id="linearGradient4489" />
    <linearGradient
       x1="48.660427"
       y1="-20.080877"
       x2="51.449818"
       inkscape:collect="always"
       gradientUnits="userSpaceOnUse"
       y2="-38.99382"
       xlink:href="#linearGradient6932"
       id="linearGradient4505" />
    <radialGradient
       gradientTransform="matrix(2.4653126e-2,1.0516394,-0.2376532,5.6536975e-3,16.646714,-58.801109)"
       inkscape:collect="always"
       r="11.770966"
       gradientUnits="userSpaceOnUse"
       xlink:href="#linearGradient4561"
       cy="-37.549797"
       id="radialGradient4559"
       fx="26.098358"
       cx="26.098358"
       fy="-37.549797" />
    <linearGradient
       inkscape:collect="always"
       xlink:href="#linearGradient6932"
       id="linearGradient6822"
       x1="33.251537"
       y1="-27.672466"
       x2="33.386883"
       y2="-36.019905"
       gradientUnits="userSpaceOnUse" />
    <radialGradient
       inkscape:collect="always"
       xlink:href="#linearGradient4176"
       id="radialGradient6864"
       gradientUnits="userSpaceOnUse"
       gradientTransform="matrix(3.524864,-2.5031421e-3,0,3.4726505,-59.436409,137.65069)"
       cx="33.29604"
       cy="-35.312073"
       fx="33.29604"
       fy="-35.312073"
       r="11.770966" />
    <radialGradient
       inkscape:collect="always"
       xlink:href="#linearGradient4126"
       id="radialGradient6877"
       gradientUnits="userSpaceOnUse"
       gradientTransform="matrix(1,0,0,0.5,0,20)"
       cx="23.857143"
       cy="40"
       fx="23.857143"
       fy="40"
       r="17.142857" />
    <radialGradient
       inkscape:collect="always"
       xlink:href="#linearGradient4126"
       id="radialGradient6881"
       gradientUnits="userSpaceOnUse"
       gradientTransform="matrix(1,0,0,0.5,0,20)"
       cx="23.857143"
       cy="40"
       fx="23.857143"
       fy="40"
       r="17.142857" />
    <radialGradient
       inkscape:collect="always"
       xlink:href="#linearGradient4126"
       id="radialGradient6902"
       cx="79.893204"
       cy="37.781101"
       fx="79.893204"
       fy="37.781101"
       r="35.730412"
       gradientTransform="matrix(1.0151429,0.121809,-5.8039931e-2,0.4627281,0.9829997,10.56701)"
       gradientUnits="userSpaceOnUse" />
    <radialGradient
       inkscape:collect="always"
       xlink:href="#linearGradient4176"
       id="radialGradient6904"
       gradientUnits="userSpaceOnUse"
       gradientTransform="matrix(1.686911,-1.2083832e-3,0,1.67641,-22.319058,25.828779)"
       cx="33.29604"
       cy="-35.312073"
       fx="33.29604"
       fy="-35.312073"
       r="11.770966" />
    <radialGradient
       inkscape:collect="always"
       xlink:href="#linearGradient4176"
       id="radialGradient6906"
       gradientUnits="userSpaceOnUse"
       gradientTransform="matrix(2.9782075,0.3509502,-0.1086737,0.9209408,-34.779884,19.863546)"
       cx="31.330032"
       cy="-36.992302"
       fx="31.330032"
       fy="-36.992302"
       r="11.770966" />
  </defs>
  <metadata
     id="metadata4">
    <rdf:RDF>
      <cc:Work
         rdf:about="">
        <dc:format>image/svg+xml</dc:format>
        <dc:type
           rdf:resource="http://purl.org/dc/dcmitype/StillImage" />
        <dc:title>Battery</dc:title>
        <dc:creator>
          <cc:Agent>
            <dc:title>Jakub Steiner</dc:title>
          </cc:Agent>
        </dc:creator>
        <dc:source>http://jimmac.musichall.cz</dc:source>
        <dc:subject>
          <rdf:Bag>
            <rdf:li>battery</rdf:li>
            <rdf:li>apm</rdf:li>
            <rdf:li>acpi</rdf:li>
            <rdf:li>power management</rdf:li>
          </rdf:Bag>
        </dc:subject>
        <cc:license
           rdf:resource="http://creativecommons.org/licenses/by-sa/2.0/" />
      </cc:Work>
      <cc:License
         rdf:about="http://creativecommons.org/licenses/by-sa/2.0/">
        <cc:permits
           rdf:resource="http://web.resource.org/cc/Reproduction" />
        <cc:permits
           rdf:resource="http://web.resource.org/cc/Distribution" />
        <cc:requires
           rdf:resource="http://web.resource.org/cc/Notice" />
        <cc:requires
           rdf:resource="http://web.resource.org/cc/Attribution" />
        <cc:permits
           rdf:resource="http://web.resource.org/cc/DerivativeWorks" />
        <cc:requires
           rdf:resource="http://web.resource.org/cc/ShareAlike" />
      </cc:License>
    </rdf:RDF>
  </metadata>
  <g
     inkscape:label="Battery"
     id="layer1"
     inkscape:groupmode="layer"
     transform="translate(-42.244868,7.3631386)">
    <rect
       style="opacity:1;color:#000000;fill:url(#radialGradient6902);fill-opacity:1;fill-rule:nonzero;stroke:none;stroke-width:1.87017083;stroke-linecap:butt;stroke-linejoin:miter;marker:none;marker-start:none;marker-mid:none;marker-end:none;stroke-miterlimit:10;stroke-dasharray:none;stroke-dashoffset:0;stroke-opacity:1;visibility:visible;display:block;overflow:visible;enable-background:accumulate"
       id="rect6887"
       width="71.460823"
       height="35.015804"
       x="44.162788"
       y="20.273199"
       ry="5.6141357"
       rx="8.2819605"
       transform="matrix(1.0226594,5.5912306e-2,-4.4792433e-2,1.0255011,-0.689721,-10.075431)" />
    <path
       style="color:#000000;fill:#babdb6;fill-opacity:1;fill-rule:nonzero;stroke:url(#linearGradient4489);stroke-width:0.55935448;stroke-linecap:round;stroke-linejoin:round;marker:none;marker-start:none;marker-mid:none;marker-end:none;stroke-miterlimit:10;stroke-dasharray:none;stroke-dashoffset:0;stroke-opacity:1;visibility:visible;display:block;overflow:visible;enable-background:accumulate"
       d="M 58.960573,-42.491718 L 36.906653,-41.949462 L 29.90625,-35.65625 L 27.569247,-19.81063 L 51.73133,-18.982991 L 56.49692,-25.787374 L 58.960573,-42.491718 z "
       sodipodi:nodetypes="ccccccs"
       id="rect4434"
       transform="matrix(2.1362255,0.259694,0.3150629,2.1927747,-4.8593372,75.638144)" />
    <path
       style="color:#000000;fill:url(#radialGradient6904);fill-opacity:1;fill-rule:nonzero;stroke:none;stroke-width:0.87199998;stroke-linecap:square;stroke-linejoin:miter;marker:none;marker-start:none;marker-mid:none;marker-end:none;stroke-miterlimit:1.60000002;stroke-dasharray:none;stroke-dashoffset:0;stroke-opacity:1;visibility:visible;display:block;overflow:visible;enable-background:accumulate"
       transform="matrix(2.0895376,0,0,2.0714804,-12.799898,84.146885)"
       sodipodi:nodetypes="cccc"
       d="M 53.082506,-35.142741 L 53.34406,-18.543837 L 29.683785,-22.153406 L 29.43672,-37.682036"
       id="path4533" />
    <path
       style="color:#000000;fill:url(#radialGradient4559);fill-opacity:1;fill-rule:nonzero;stroke:none;stroke-width:0.87199998;stroke-linecap:square;stroke-linejoin:miter;marker:none;marker-start:none;marker-mid:none;marker-end:none;stroke-miterlimit:1.60000002;stroke-dasharray:none;stroke-dashoffset:0;stroke-opacity:1;visibility:visible;display:block;overflow:visible;enable-background:accumulate"
       transform="matrix(2.0895376,0,0,2.0714804,45.41837,77.582822)"
       sodipodi:nodetypes="cccc"
       d="M 29.010911,-20.995589 L 25.957247,-15.858811 L 25.445653,-32.17796 L 28.894965,-37.568394"
       id="path4557" />
    <path
       style="color:#000000;fill:#f02f2f;fill-opacity:1;fill-rule:nonzero;stroke:#f57070;stroke-width:0.87221408;stroke-linecap:square;stroke-linejoin:miter;marker:none;marker-start:none;marker-mid:none;marker-end:none;stroke-miterlimit:1.60000002;stroke-dasharray:none;stroke-dashoffset:0;stroke-opacity:1;visibility:visible;display:block;overflow:visible;enable-background:accumulate"
       transform="matrix(0.8422377,0,0,0.8349594,38.933587,49.49191)"
       sodipodi:nodetypes="ccccc"
       d="M 29.825562,-37.455749 L 52.828263,-34.901368 L 53.127206,-18.596637 L 29.878206,-22.191121 L 29.825562,-37.455749 z "
       id="path4567" />
    <path
       style="color:#000000;fill:url(#radialGradient6864);fill-opacity:1;fill-rule:nonzero;stroke:none;stroke-width:0.87199998;stroke-linecap:square;stroke-linejoin:miter;marker:none;marker-start:none;marker-mid:none;marker-end:none;stroke-miterlimit:1.60000002;stroke-dasharray:none;stroke-dashoffset:0;stroke-opacity:1;visibility:visible;display:block;overflow:visible;enable-background:accumulate"
       d="M 74.03125,8.40625 L 48.90625,5.890625 L 49.203125,38.109375 L 53.46875,38.78125 C 53.651816,38.417945 53.747209,38.151858 53.9375,37.78125 C 55.654745,34.436767 57.656983,30.833002 59.96875,27.09375 C 62.280517,23.354498 64.895157,19.492742 67.8125,15.71875 C 69.271172,13.831754 70.825362,11.953175 72.4375,10.125 C 72.723056,9.8011772 73.740853,8.7273963 74.03125,8.40625 z "
       id="path6862"
       transform="translate(-2.1217364e-2,0.1809044)"
       sodipodi:nodetypes="ccccssssc" />
    <path
       style="color:#000000;fill:url(#radialGradient6906);fill-opacity:1;fill-rule:nonzero;stroke:none;stroke-width:0.87199998;stroke-linecap:square;stroke-linejoin:miter;marker:none;marker-start:none;marker-mid:none;marker-end:none;stroke-miterlimit:1.60000002;stroke-dasharray:none;stroke-dashoffset:0;stroke-opacity:1;visibility:visible;display:block;overflow:visible;enable-background:accumulate"
       d="M 86.78125,-2.96875 L 61.0625,-5.75 L 49.0625,5.625 L 74,8.46875 C 75.146441,7.2249395 76.27959,5.972213 77.5,4.78125 C 79.266986,3.0568989 81.108034,1.4192731 83.03125,-0.15625 C 84.236259,-1.1434089 85.514468,-2.054386 86.78125,-2.96875 z "
       id="path6873"
       sodipodi:nodetypes="ccccssc" />
    <path
       style="opacity:0.65822784;color:#000000;fill:url(#radialGradient6877);fill-opacity:1;fill-rule:nonzero;stroke:none;stroke-width:1;stroke-linecap:butt;stroke-linejoin:miter;marker:none;marker-start:none;marker-mid:none;marker-end:none;stroke-miterlimit:10;stroke-dasharray:none;stroke-dashoffset:0;stroke-opacity:1;visibility:visible;display:block;overflow:visible"
       sodipodi:cx="23.857143"
       sodipodi:cy="40"
       sodipodi:type="arc"
       transform="matrix(0.36343,0,0,0.36343,56.573333,-14.058651)"
       d="M 41 40 A 17.142857 8.5714283 0 1 1  6.7142868,40 A 17.142857 8.5714283 0 1 1  41 40 z"
       sodipodi:rx="17.142857"
       id="path6875"
       sodipodi:ry="8.5714283" />
    <path
       style="color:#000000;fill:none;fill-opacity:1;fill-rule:nonzero;stroke:url(#linearGradient4505);stroke-width:0.50531112;stroke-linecap:square;stroke-linejoin:miter;marker:none;marker-start:none;marker-mid:none;marker-end:none;stroke-miterlimit:1.60000002;stroke-dasharray:none;stroke-dashoffset:0;stroke-opacity:1;visibility:visible;display:block;overflow:visible;enable-background:accumulate"
       id="path4473"
       sodipodi:nodetypes="ccccccccccc"
       d="M 52.824834,-35.018681 L 56.525677,-40.480488 L 35.466281,-42.493248 L 29.850749,-37.308463 L 30.003012,-22.293735 L 53.058849,-18.718283 L 56.518799,-24.591455 C 56.518799,-24.591455 56.510301,-36.599093 56.501929,-40.476132 M 30.149902,-37.282893 L 52.828263,-34.901368 L 53.038086,-18.946131"
       transform="matrix(2.1768767,0,0,2.1768767,-16.427009,86.938545)" />
    <path
       style="opacity:1;color:#000000;fill:#888a85;fill-opacity:1;fill-rule:nonzero;stroke:#555753;stroke-width:0.74301636;stroke-linecap:butt;stroke-linejoin:miter;marker:none;marker-start:none;marker-mid:none;marker-end:none;stroke-miterlimit:10;stroke-dasharray:none;stroke-dashoffset:0;stroke-opacity:1;visibility:visible;display:block;overflow:visible"
       d="M 23.889443,6.465348 C 21.886649,6.465348 19.258159,7.179501 19.258159,8.058017 C 19.258159,8.121057 19.258159,10.622022 19.258159,10.687676 C 19.258159,11.566192 21.886649,12.280345 23.889443,12.280345 C 25.892238,12.280345 28.299859,11.566192 28.299858,10.687676 C 28.299858,10.635676 28.299858,8.110017 28.299858,8.058017 C 28.299858,7.1795 25.892238,6.465348 23.889443,6.465348 z "
       sodipodi:nodetypes="csszssz"
       id="path4451"
       transform="matrix(0.8616592,0,0,0.8881666,44.006561,-8.4262697)" />
    <path
       style="opacity:1;color:#000000;fill:#babdb6;fill-opacity:1;fill-rule:nonzero;stroke:url(#linearGradient4455);stroke-width:4.11986637;stroke-linecap:butt;stroke-linejoin:miter;marker:none;marker-start:none;marker-mid:none;marker-end:none;stroke-miterlimit:10;stroke-dasharray:none;stroke-dashoffset:0;stroke-opacity:1;visibility:visible;display:block;overflow:visible"
       sodipodi:cx="24"
       sodipodi:cy="14.071428"
       sodipodi:type="arc"
       transform="matrix(0.2343532,0,0,0.1923937,58.887827,-3.6215197)"
       d="M 36.857142 14.071428 A 12.857142 5.5 0 1 1  11.142858,14.071428 A 12.857142 5.5 0 1 1  36.857142 14.071428 z"
       sodipodi:rx="12.857142"
       id="path4453"
       sodipodi:ry="5.5" />
    <path
       sodipodi:ry="8.5714283"
       id="path6879"
       sodipodi:rx="17.142857"
       d="M 41 40 A 17.142857 8.5714283 0 1 1  6.7142868,40 A 17.142857 8.5714283 0 1 1  41 40 z"
       transform="matrix(0.36343,0,0,0.36343,84.157212,-11.628983)"
       sodipodi:type="arc"
       sodipodi:cy="40"
       sodipodi:cx="23.857143"
       style="opacity:0.65822784;color:#000000;fill:url(#radialGradient6881);fill-opacity:1;fill-rule:nonzero;stroke:none;stroke-width:1;stroke-linecap:butt;stroke-linejoin:miter;marker:none;marker-start:none;marker-mid:none;marker-end:none;stroke-miterlimit:10;stroke-dasharray:none;stroke-dashoffset:0;stroke-opacity:1;visibility:visible;display:block;overflow:visible" />
    <path
       style="opacity:1;color:#000000;fill:#888a85;fill-opacity:1;fill-rule:nonzero;stroke:#555753;stroke-width:0.74301636;stroke-linecap:butt;stroke-linejoin:miter;marker:none;marker-start:none;marker-mid:none;marker-end:none;stroke-miterlimit:10;stroke-dasharray:none;stroke-dashoffset:0;stroke-opacity:1;visibility:visible;display:block;overflow:visible"
       transform="matrix(0.8616592,0,0,0.8881666,71.712537,-5.7878937)"
       sodipodi:nodetypes="csszssz"
       d="M 23.889443,6.465348 C 21.886649,6.465348 19.258159,7.179501 19.258159,8.058017 C 19.258159,8.121057 19.258159,10.622022 19.258159,10.687676 C 19.258159,11.566192 21.886649,12.280345 23.889443,12.280345 C 25.892238,12.280345 28.299859,11.566192 28.299858,10.687676 C 28.299858,10.635676 28.299858,8.110017 28.299858,8.058017 C 28.299858,7.1795 25.892238,6.465348 23.889443,6.465348 z "
       id="path4467" />
    <path
       style="opacity:1;color:#000000;fill:#babdb6;fill-opacity:1;fill-rule:nonzero;stroke:url(#linearGradient4471);stroke-width:4.11986637;stroke-linecap:butt;stroke-linejoin:miter;marker:none;marker-start:none;marker-mid:none;marker-end:none;stroke-miterlimit:10;stroke-dasharray:none;stroke-dashoffset:0;stroke-opacity:1;visibility:visible;display:block;overflow:visible"
       sodipodi:cx="24"
       sodipodi:cy="14.071428"
       sodipodi:type="arc"
       transform="matrix(0.2343532,0,0,0.1923937,86.593804,-0.9831437)"
       d="M 36.857142 14.071428 A 12.857142 5.5 0 1 1  11.142858,14.071428 A 12.857142 5.5 0 1 1  36.857142 14.071428 z"
       sodipodi:rx="12.857142"
       id="path4469"
       sodipodi:ry="5.5" />
    <path
       style="font-size:12px;font-style:normal;font-weight:normal;text-align:justify;text-anchor:start;fill:url(#linearGradient6822);fill-opacity:1;stroke:none;stroke-width:1px;stroke-linecap:butt;stroke-linejoin:miter;stroke-opacity:1;font-family:Arial"
       transform="matrix(1.5560911,0,0,1.5560911,20.60489,75.211126)"
       d="M 31.480818,-29.080948 C 31.480818,-29.080948 31.077145,-29.140466 31.077145,-29.140466 C 31.077145,-29.140466 31.165383,-33.767455 31.165383,-33.767455 C 31.065911,-33.612484 30.936244,-33.461129 30.776545,-33.313488 C 30.618641,-33.165968 30.477292,-33.058236 30.352425,-32.990159 C 30.352425,-32.990159 30.36638,-33.684389 30.36638,-33.684389 C 30.591625,-33.848471 30.790332,-34.056069 30.962241,-34.307176 C 31.13448,-34.558757 31.257962,-34.807852 31.332463,-35.054178 C 31.332463,-35.054178 31.591137,-35.028114 31.591137,-35.028114 C 31.591137,-35.028114 31.480818,-29.080948 31.480818,-29.080948 M 34.739445,-29.324053 C 34.739445,-29.324053 34.729072,-28.602016 34.729072,-28.602016 C 34.729072,-28.602016 32.476157,-28.934192 32.476157,-28.934192 C 32.47618,-29.112429 32.495121,-29.280989 32.532983,-29.439952 C 32.594015,-29.702489 32.688553,-29.956301 32.816709,-30.201582 C 32.946555,-30.446959 33.132474,-30.72634 33.374845,-31.040144 C 33.752343,-31.530119 34.009305,-31.924342 34.144631,-32.221496 C 34.280156,-32.521746 34.350073,-32.812073 34.354256,-33.092059 C 34.358637,-33.385543 34.302387,-33.638781 34.185716,-33.851567 C 34.070907,-34.066408 33.91847,-34.183676 33.728621,-34.2037 C 33.528567,-34.22479 33.367248,-34.135714 33.244324,-33.936712 C 33.121557,-33.73796 33.056358,-33.451508 33.048603,-33.076897 C 33.048603,-33.076897 32.627365,-33.202549 32.627365,-33.202549 C 32.665802,-33.759439 32.78162,-34.173571 32.975164,-34.445806 C 33.169171,-34.721329 33.426307,-34.843198 33.747449,-34.810846 C 34.073279,-34.77801 34.32993,-34.592099 34.516701,-34.252282 C 34.704172,-33.911172 34.794756,-33.502339 34.787917,-33.026309 C 34.784431,-32.783935 34.752756,-32.548861 34.692905,-32.321245 C 34.633065,-32.093681 34.535481,-31.858382 34.400276,-31.61555 C 34.26681,-31.37284 34.045664,-31.045238 33.737511,-30.633576 C 33.481043,-30.293511 33.316559,-30.061468 33.24354,-29.936777 C 33.17062,-29.814922 33.110024,-29.690056 33.061724,-29.562147 C 33.061724,-29.562147 34.739445,-29.324053 34.739445,-29.324053 M 36.372326,-28.35973 C 36.372326,-28.35973 35.094114,-34.650394 35.094114,-34.650394 C 35.094114,-34.650394 35.591336,-34.600201 35.591336,-34.600201 C 35.591336,-34.600201 36.448766,-30.04528 36.448766,-30.04528 C 36.518749,-29.675243 36.576999,-29.328693 36.623461,-29.00582 C 36.682635,-29.33651 36.750735,-29.665964 36.827776,-29.994248 C 36.827776,-29.994248 37.846753,-34.372521 37.846753,-34.372521 C 37.846753,-34.372521 38.335364,-34.323197 38.335364,-34.323197 C 38.335364,-34.323197 36.856763,-28.288303 36.856763,-28.288303 C 36.856763,-28.288303 36.372326,-28.35973 36.372326,-28.35973"
       id="text6308" />
  </g>
  <g
     inkscape:label="Emblem"
     id="layer2"
     inkscape:groupmode="layer"
     transform="translate(-42.244868,7.3631386)" />
</svg>
